<svg width="290" height="69" viewBox="0 0 290 69" fill="none" xmlns="http://www.w3.org/2000/svg">
<path d="M88.5568 31C88.4811 30.053 88.1259 29.3144 87.4915 28.7841C86.8665 28.2538 85.9148 27.9886 84.6364 27.9886C83.822 27.9886 83.1544 28.0881 82.6335 28.2869C82.1222 28.4763 81.7434 28.7367 81.4972 29.0682C81.2509 29.3996 81.1231 29.7784 81.1136 30.2045C81.0947 30.5549 81.1563 30.8722 81.2983 31.1562C81.4498 31.4309 81.6866 31.6818 82.0085 31.9091C82.3305 32.1269 82.7424 32.3258 83.2443 32.5057C83.7462 32.6856 84.3428 32.8466 85.0341 32.9886L87.4205 33.5C89.0303 33.8409 90.4081 34.2907 91.554 34.8494C92.6998 35.4081 93.6373 36.0663 94.3665 36.8239C95.0956 37.572 95.6307 38.4148 95.9716 39.3523C96.322 40.2898 96.5019 41.3125 96.5114 42.4205C96.5019 44.3333 96.0237 45.9527 95.0767 47.2784C94.1297 48.6042 92.7756 49.6127 91.0142 50.304C89.2623 50.9953 87.1553 51.3409 84.6932 51.3409C82.1648 51.3409 79.9583 50.9669 78.0739 50.2188C76.1989 49.4706 74.7405 48.3201 73.6989 46.767C72.6667 45.2045 72.1458 43.2064 72.1364 40.7727H79.6364C79.6837 41.6629 79.9063 42.411 80.304 43.017C80.7017 43.6231 81.2604 44.0824 81.9801 44.3949C82.7093 44.7074 83.5758 44.8636 84.5795 44.8636C85.4223 44.8636 86.1278 44.7595 86.696 44.5511C87.2642 44.3428 87.6951 44.054 87.9886 43.6847C88.2822 43.3153 88.4337 42.8939 88.4432 42.4205C88.4337 41.9754 88.2869 41.5871 88.0028 41.2557C87.7282 40.9148 87.2737 40.6117 86.6392 40.3466C86.0047 40.072 85.1477 39.8163 84.0682 39.5795L81.1705 38.9545C78.5947 38.3958 76.5634 37.4631 75.0767 36.1562C73.5994 34.84 72.8655 33.0455 72.875 30.7727C72.8655 28.9261 73.358 27.3116 74.3523 25.929C75.3561 24.5369 76.7434 23.4527 78.5142 22.6761C80.2945 21.8996 82.3352 21.5114 84.6364 21.5114C86.9848 21.5114 89.0161 21.9044 90.7301 22.6903C92.4441 23.4763 93.7652 24.5843 94.6932 26.0142C95.6307 27.4347 96.1042 29.0966 96.1136 31H88.5568ZM108.72 28.2727V21.9091H134.004V28.2727H125.254V51H117.47V28.2727H108.72ZM173.791 36.4545C173.791 39.6932 173.161 42.4252 171.902 44.6506C170.643 46.8665 168.943 48.5473 166.803 49.6932C164.662 50.8295 162.276 51.3977 159.643 51.3977C156.992 51.3977 154.596 50.8248 152.456 49.679C150.325 48.5237 148.63 46.8381 147.371 44.6222C146.121 42.3968 145.496 39.6742 145.496 36.4545C145.496 33.2159 146.121 30.4886 147.371 28.2727C148.63 26.0473 150.325 24.3665 152.456 23.2301C154.596 22.0843 156.992 21.5114 159.643 21.5114C162.276 21.5114 164.662 22.0843 166.803 23.2301C168.943 24.3665 170.643 26.0473 171.902 28.2727C173.161 30.4886 173.791 33.2159 173.791 36.4545ZM165.666 36.4545C165.666 34.7121 165.434 33.2443 164.97 32.0511C164.516 30.8485 163.839 29.9394 162.939 29.3239C162.049 28.6989 160.95 28.3864 159.643 28.3864C158.337 28.3864 157.233 28.6989 156.334 29.3239C155.444 29.9394 154.767 30.8485 154.303 32.0511C153.848 33.2443 153.621 34.7121 153.621 36.4545C153.621 38.197 153.848 39.6695 154.303 40.8722C154.767 42.0653 155.444 42.9744 156.334 43.5994C157.233 44.215 158.337 44.5227 159.643 44.5227C160.95 44.5227 162.049 44.215 162.939 43.5994C163.839 42.9744 164.516 42.0653 164.97 40.8722C165.434 39.6695 165.666 38.197 165.666 36.4545ZM212.616 21.9091V51H206.025L195.513 35.7159H195.343V51H187.445V21.9091H194.15L204.491 37.1364H204.718V21.9091H212.616ZM226.352 51V21.9091H234.249V33.6705H234.647L243.397 21.9091H252.602L242.772 34.8636L252.829 51H243.397L236.863 40.0909L234.249 43.5V51H226.352ZM280.237 31C280.161 30.053 279.806 29.3144 279.171 28.7841C278.546 28.2538 277.594 27.9886 276.316 27.9886C275.502 27.9886 274.834 28.0881 274.313 28.2869C273.802 28.4763 273.423 28.7367 273.177 29.0682C272.931 29.3996 272.803 29.7784 272.793 30.2045C272.774 30.5549 272.836 30.8722 272.978 31.1562C273.129 31.4309 273.366 31.6818 273.688 31.9091C274.01 32.1269 274.422 32.3258 274.924 32.5057C275.426 32.6856 276.022 32.8466 276.714 32.9886L279.1 33.5C280.71 33.8409 282.088 34.2907 283.234 34.8494C284.379 35.4081 285.317 36.0663 286.046 36.8239C286.775 37.572 287.31 38.4148 287.651 39.3523C288.002 40.2898 288.182 41.3125 288.191 42.4205C288.182 44.3333 287.703 45.9527 286.756 47.2784C285.809 48.6042 284.455 49.6127 282.694 50.304C280.942 50.9953 278.835 51.3409 276.373 51.3409C273.844 51.3409 271.638 50.9669 269.754 50.2188C267.879 49.4706 266.42 48.3201 265.379 46.767C264.346 45.2045 263.826 43.2064 263.816 40.7727H271.316C271.363 41.6629 271.586 42.411 271.984 43.017C272.381 43.6231 272.94 44.0824 273.66 44.3949C274.389 44.7074 275.255 44.8636 276.259 44.8636C277.102 44.8636 277.808 44.7595 278.376 44.5511C278.944 44.3428 279.375 44.054 279.668 43.6847C279.962 43.3153 280.113 42.8939 280.123 42.4205C280.113 41.9754 279.967 41.5871 279.683 41.2557C279.408 40.9148 278.953 40.6117 278.319 40.3466C277.684 40.072 276.827 39.8163 275.748 39.5795L272.85 38.9545C270.274 38.3958 268.243 37.4631 266.756 36.1562C265.279 34.84 264.545 33.0455 264.555 30.7727C264.545 28.9261 265.038 27.3116 266.032 25.929C267.036 24.5369 268.423 23.4527 270.194 22.6761C271.974 21.8996 274.015 21.5114 276.316 21.5114C278.665 21.5114 280.696 21.9044 282.41 22.6903C284.124 23.4763 285.445 24.5843 286.373 26.0142C287.31 27.4347 287.784 29.0966 287.793 31H280.237Z" fill="white"/>
<mask id="mask0_3773_146" style="mask-type:alpha" maskUnits="userSpaceOnUse" x="0" y="0" width="53" height="69">
<path d="M52.6194 34.2198C52.6194 53.1189 40.8401 68.4396 26.3097 68.4396C11.7793 68.4396 0 53.1189 0 34.2198C0 15.3207 11.7793 0 26.3097 0C40.8401 0 52.6194 15.3207 52.6194 34.2198Z" fill="#D9D9D9"/>
</mask>
<g mask="url(#mask0_3773_146)">
<path d="M7.75291 63.4828C9.26226 67.4072 22.9238 69.835 28.7346 72.5374C29.5246 72.9049 30.5078 72.7014 30.9558 71.9541C33.0429 68.4729 33.7397 65.7421 34.4115 63.4828L32.8697 58.0372C32.801 57.4882 33.5696 56.4315 37.1928 56.5961C41.7218 56.802 41.9277 52.4789 45.0156 47.1264C47.486 42.8444 49.0643 32.5791 49.5447 27.9817C49.5447 17.174 41.7262 5.44766 30.3993 4.10149C23.6052 3.29404 13.1717 5.8507 7.75291 14.7645C0.807793 26.1892 3.84227 43.0098 4.45986 45.686C5.07745 48.3623 5.69427 58.1304 7.75291 63.4828Z" fill="#D9BFAC"/>
<path fill-rule="evenodd" clip-rule="evenodd" d="M51.9253 28.1049L51.9124 28.2282C51.6653 30.5934 51.1394 34.3892 50.3573 38.1554C49.5943 41.83 48.5236 45.8088 47.0778 48.3148C46.3671 49.5467 45.8148 50.7317 45.2952 51.8761C45.243 51.9912 45.1905 52.1071 45.1378 52.2236C44.6878 53.2182 44.2196 54.2532 43.7022 55.142C43.1125 56.1551 42.3388 57.1999 41.1935 57.9478C40.0005 58.7268 38.6247 59.0426 37.0856 58.9726C36.4567 58.944 35.9757 58.9601 35.615 58.9941L36.8903 63.4983L36.6934 64.1604C36.6351 64.3566 36.5759 64.559 36.5149 64.7675C35.8844 66.9229 35.0624 69.7331 32.9978 73.1769C31.8025 75.1706 29.3991 75.4697 27.7319 74.6944C26.4355 74.0915 24.6275 73.4733 22.5022 72.8032C21.7764 72.5743 21.0102 72.3384 20.2267 72.0972C18.7894 71.6546 17.2939 71.1941 15.8828 70.7264C13.6933 70.0007 11.5145 69.1971 9.75584 68.2847C8.87413 67.8273 8.02681 67.3066 7.31452 66.7048C6.61392 66.1129 5.91724 65.3363 5.53263 64.3363C4.39524 61.3791 3.6984 57.3528 3.21067 53.9142C3.02217 52.5853 2.85929 51.2991 2.71532 50.1623C2.67043 49.8078 2.62738 49.4679 2.58596 49.1457C2.40424 47.732 2.26413 46.75 2.14189 46.2203C1.80067 44.7417 0.857978 39.6807 0.891496 33.4922C0.924812 27.341 1.92247 19.7748 5.72026 13.5275C11.7579 3.59556 23.2499 0.854338 30.681 1.7375C37.1151 2.50218 42.4422 6.20258 46.1176 11.056C49.7852 15.8991 51.9253 22.0324 51.9253 27.9809V28.1049ZM32.8705 58.0364C32.8019 57.4874 33.5705 56.4306 37.1937 56.5953C40.4779 56.7446 41.4888 54.5123 42.9739 51.233C43.5368 49.99 44.1678 48.5967 45.0165 47.1256C47.4869 42.8436 49.0652 32.5783 49.5455 27.9809C49.5455 17.1731 41.727 5.44681 30.4002 4.10064C23.6061 3.29319 13.1725 5.84985 7.75377 14.7637C0.808658 26.1883 3.84313 43.0089 4.46072 45.6852C4.65216 46.5148 4.84353 48.0258 5.07779 49.8755C5.59926 53.993 6.33327 59.7887 7.75377 63.482C8.75079 66.0742 15.0503 68.0135 20.8868 69.8103C23.886 70.7336 26.763 71.6193 28.7354 72.5366C29.5255 72.904 30.5087 72.7005 30.9567 71.9532C32.8596 68.7792 33.6068 66.2289 34.233 64.0912C34.2936 63.8843 34.3531 63.6813 34.4124 63.482L32.8705 58.0364Z" fill="black"/>
<mask id="mask1_3773_146" style="mask-type:alpha" maskUnits="userSpaceOnUse" x="3" y="3" width="47" height="71">
<path d="M7.75291 63.4828C9.39982 67.7648 25.5149 70.2652 30.1126 73.2845C32.8697 69.1575 33.6563 66.0223 34.4115 63.4828L32.8697 58.0372C32.801 57.4882 33.5696 56.4314 37.1928 56.5961C41.7218 56.802 41.9277 52.4789 45.0156 47.1264C47.486 42.8444 49.0643 32.5791 49.5447 27.9817C49.5447 17.174 41.7262 5.44766 30.3993 4.10149C23.6052 3.29404 13.1717 5.8507 7.75291 14.7645C0.807793 26.1892 3.84227 43.0098 4.45986 45.686C5.07745 48.3623 5.69427 58.1304 7.75291 63.4828Z" fill="#D9BFAC"/>
</mask>
<g mask="url(#mask1_3773_146)">
<path d="M43.0089 48.345L49.1994 38.3714L53.6703 43.1862L43.0089 53.5038V48.345Z" fill="#C4A695"/>
<path d="M40.7734 40.9508L41.4613 37.7695H45.0724L42.1491 40.9508H40.7734Z" fill="#C4A695"/>
<path d="M43.786 27.1065C43.0982 25.9372 43.4994 24.8424 43.786 24.4411C45.9351 23.0655 46.7957 23.2376 47.8275 24.0972C49.2941 25.3192 49.2891 28.3962 48.3433 29.17C47.3976 29.9438 44.6458 28.5682 43.786 27.1065Z" fill="#C4AA98"/>
<path d="M33.7583 57.1111C14.9835 46.4062 15.1522 22.5563 30.0527 3.38057L31.2875 -1.14844L-2.0625 8.52717L-0.415588 61.2284L26.1409 79.1385C36.5028 76.2564 52.5331 67.816 33.7583 57.1111Z" fill="#C4A695"/>
<path d="M31.8025 60.9184C28.4263 59.4361 26.004 54.6052 25.2148 52.375C26.7794 55.4218 31.1506 56.458 33.1406 56.5952L34.8418 63.5671L29.0233 66.6825C31.3565 65.3787 35.1787 62.4006 31.8025 60.9184Z" fill="#9A7A66"/>
<path d="M13.7721 68.3002C3.79068 50.0202 4.14245 25.9983 11.7272 9.35368L-4.125 2.14844L-1.65463 63.7018C3.2177 72.897 25.7907 90.3109 13.7721 68.3002Z" fill="#94776B"/>
<path fill-rule="evenodd" clip-rule="evenodd" d="M27.0616 54.3099C27.4721 53.7967 28.2209 53.7135 28.734 54.1241C30.9172 55.8706 33.9766 56.3337 35.196 56.3337C35.8531 56.3337 36.3858 56.8664 36.3858 57.5236C36.3858 58.1807 35.8531 58.7135 35.196 58.7135C33.6704 58.7135 30.0049 58.1884 27.2474 55.9824C26.7342 55.5718 26.651 54.823 27.0616 54.3099Z" fill="black"/>
<path d="M47.7399 22.2176C46.1578 21.461 44.3864 22.4756 43.7853 23.6792C43.642 24.3096 43.3033 25.3294 44.1287 24.3665C44.9541 23.4035 47.3386 23.5071 48.4277 23.6792C48.8576 23.5073 49.3219 22.9742 47.7399 22.2176Z" fill="#987666"/>
</g>
<path d="M40.0881 35.5352C42.4267 31.8897 41.0625 26.2208 40.0881 23.842C38.4544 22.036 37.1468 20.523 38.7976 24.0997C40.4484 27.6765 40.0306 31.5801 39.5722 33.4717C38.7697 35.6785 37.7494 39.1807 40.0881 35.5352Z" fill="#C4AA98"/>
<path d="M32.6 24.6176C34.3196 21.8663 37.7874 22.9554 39.3064 23.8438C40.1662 24.3467 41.2682 26.5953 40.1662 27.6271C36.1251 31.4103 30.4505 28.0568 32.6 24.6176Z" fill="#C4AA98"/>
<path d="M22.6139 63.6651L20.8242 52.4766C22.7192 55.0085 23.8773 59.4566 24.509 62.7413C25.0448 65.5279 23.2456 64.8285 22.6139 63.6651Z" fill="#9A7A66"/>
<path d="M37.0427 23.0817C33.6933 22.1734 29.8498 23.9695 28.6484 25.3043C30.282 21.951 32.6616 21.0354 35.8715 21.0923C36.8945 21.0923 37.6469 21.4303 38.2093 21.924C38.8283 22.4673 37.8375 23.2972 37.0427 23.0817Z" fill="#987666"/>
<path d="M36.3067 26.3369C36.3067 27.4766 35.3828 28.4004 34.2432 28.4004C33.1036 28.4004 32.1797 27.4766 32.1797 26.3369C32.1797 25.1973 33.1036 24.2734 34.2432 24.2734C35.3828 24.2734 36.3067 25.1973 36.3067 26.3369Z" fill="#659EB3"/>
<path d="M35.9664 26.3367C35.9664 27.1914 35.2735 27.8843 34.4187 27.8843C33.564 27.8843 32.8711 27.1914 32.8711 26.3367C32.8711 25.482 33.564 24.7891 34.4187 24.7891C35.2735 24.7891 35.9664 25.482 35.9664 26.3367Z" fill="#0A1613"/>
<path fill-rule="evenodd" clip-rule="evenodd" d="M39.0011 27.5268C39.1985 27.742 39.1841 28.0765 38.9689 28.274C37.4534 29.6645 36.2068 30.1766 35.0488 30.2647C34.4816 30.3079 33.9603 30.2472 33.4774 30.1643C33.2608 30.1272 33.0676 30.089 32.8816 30.0523C32.6238 30.0015 32.3798 29.9533 32.1063 29.9142C31.8172 29.8728 31.6164 29.6049 31.6577 29.3158C31.6991 29.0266 31.967 28.8258 32.2562 28.8672C32.5411 28.908 32.8485 28.968 33.1383 29.0245C33.3214 29.0603 33.4974 29.0946 33.6563 29.1219C34.1006 29.1981 34.5252 29.2439 34.9685 29.2101C35.8316 29.1444 36.8644 28.7695 38.2539 27.4946C38.4691 27.2972 38.8036 27.3116 39.0011 27.5268ZM45.0343 28.2602C45.2149 28.0307 45.5474 27.9911 45.7769 28.1717C46.0412 28.3798 46.9156 28.8618 48.0015 28.8618C48.2935 28.8618 48.5303 29.0986 48.5303 29.3907C48.5303 29.6828 48.2935 29.9195 48.0015 29.9195C46.6377 29.9195 45.5389 29.3304 45.1227 29.0028C44.8932 28.8222 44.8536 28.4897 45.0343 28.2602Z" fill="black"/>
<path d="M48.3492 26.4227C48.3492 27.3249 47.6179 28.0563 46.7156 28.0563C45.8134 28.0563 45.082 27.3249 45.082 26.4227C45.082 25.5205 45.8134 24.7891 46.7156 24.7891C47.6179 24.7891 48.3492 25.5205 48.3492 26.4227Z" fill="#659EB3"/>
<path d="M48.0013 26.4264C48.0013 27.1387 47.4238 27.7161 46.7116 27.7161C45.9993 27.7161 45.4219 27.1387 45.4219 26.4264C45.4219 25.7141 45.9993 25.1367 46.7116 25.1367C47.4238 25.1367 48.0013 25.7141 48.0013 26.4264Z" fill="#0A1613"/>
<path fill-rule="evenodd" clip-rule="evenodd" d="M45.67 37.2691C45.8455 37.5892 45.7283 37.991 45.4082 38.1666L42.2173 39.9164C41.8972 40.092 41.4954 39.9748 41.3198 39.6546C41.1443 39.3345 41.2615 38.9327 41.5816 38.7572L44.7725 37.0073C45.0926 36.8318 45.4944 36.949 45.67 37.2691Z" fill="black"/>
<path d="M45.5066 44.3064C43.9246 45.2694 41.0357 45.3959 39.918 44.9947C40.6058 46.3702 43.1852 47.0008 44.3889 47.1441C45.3347 46.0264 47.0886 43.3435 45.5066 44.3064Z" fill="#C4A695"/>
<path fill-rule="evenodd" clip-rule="evenodd" d="M42.6583 42.625L43.5571 42.9892C43.6519 43.0276 43.758 43.0279 43.853 42.9899L44.4898 42.7358C44.8288 42.6005 45.2134 42.7657 45.3487 43.1048C45.484 43.4439 45.3189 43.8285 44.9798 43.9638L44.343 44.2179C43.9311 44.3822 43.4716 44.381 43.0606 44.2145L42.7153 44.0746L41.7807 44.5419L41.1828 44.0636L40.0358 44.3177C39.6616 44.4006 39.2724 44.3864 38.9052 44.2765L37.9248 43.9831C37.575 43.8784 37.3764 43.51 37.4811 43.1603C37.5857 42.8105 37.9541 42.6118 38.3039 42.7165L39.2843 43.01C39.4355 43.0552 39.5958 43.061 39.7498 43.0269L41.5146 42.636L41.946 42.9811L42.6583 42.625Z" fill="black"/>
<path fill-rule="evenodd" clip-rule="evenodd" d="M39.3291 44.7713C39.3983 44.5635 39.6229 44.4512 39.8308 44.5205C40.217 44.6492 40.8581 44.8058 41.5035 44.851C42.1697 44.8978 42.7413 44.8184 43.0747 44.576C43.2518 44.4471 43.4999 44.4863 43.6287 44.6635C43.7576 44.8406 43.7184 45.0887 43.5412 45.2175C42.9688 45.6338 42.1509 45.6917 41.448 45.6424C40.7244 45.5916 40.0171 45.4187 39.5799 45.273C39.3721 45.2037 39.2598 44.9791 39.3291 44.7713Z" fill="black"/>
<path fill-rule="evenodd" clip-rule="evenodd" d="M34.0513 22.8322C32.2574 23.214 30.4989 24.2228 29.4352 25.041C29.1458 25.2636 28.7308 25.2095 28.5082 24.9201C28.2856 24.6307 28.3398 24.2157 28.6291 23.9931C29.7956 23.0958 31.7324 21.974 33.7761 21.5391C35.8354 21.1009 38.128 21.3466 39.741 23.3865C39.9674 23.6729 39.9188 24.0887 39.6325 24.3151C39.3461 24.5415 38.9303 24.4929 38.7039 24.2066C37.5172 22.7057 35.8297 22.4538 34.0513 22.8322Z" fill="black"/>
<path fill-rule="evenodd" clip-rule="evenodd" d="M48.4928 23.729C46.4464 23.4259 45.047 24.1208 44.6795 24.4148C44.3944 24.6428 43.9784 24.5966 43.7503 24.3115C43.5223 24.0265 43.5685 23.6105 43.8536 23.3824C44.5154 22.853 46.2863 22.0656 48.6866 22.4212C49.0477 22.4747 49.2971 22.8109 49.2436 23.172C49.1901 23.5332 48.854 23.7825 48.4928 23.729Z" fill="black"/>
<path fill-rule="evenodd" clip-rule="evenodd" d="M42.8117 25.3075C43.171 25.2427 43.5147 25.4815 43.5795 25.8408L45.7783 38.0445H39.5321C39.1671 38.0445 38.8711 37.7486 38.8711 37.3835C38.8711 37.0184 39.1671 36.7224 39.5321 36.7224H44.1967L42.2783 26.0753C42.2136 25.716 42.4524 25.3722 42.8117 25.3075Z" fill="black"/>
</g>
<path d="M28.7539 25.5446C28.7539 24.6117 29.5431 23.8555 30.5167 23.8555C31.4903 23.8555 32.2796 24.6117 32.2796 25.5446V26.6993C32.2796 27.6322 31.4903 28.3884 30.5167 28.3884C29.5431 28.3884 28.7539 27.6322 28.7539 26.6993V25.5446Z" fill="black"/>
<path d="M31.2693 25.1151C31.2693 25.2542 31.1565 25.3669 31.0175 25.3669C30.8784 25.3669 30.7656 25.2542 30.7656 25.1151C30.7656 24.976 30.8784 24.8633 31.0175 24.8633C31.1565 24.8633 31.2693 24.976 31.2693 25.1151Z" fill="white"/>
<path d="M29.2539 27.3787C29.2539 27.1005 29.4197 26.875 29.6242 26.875H31.4019C31.6064 26.875 31.7722 27.1005 31.7722 27.3787C31.7722 27.6568 31.6064 27.8823 31.4019 27.8823H29.6242C29.4197 27.8823 29.2539 27.6568 29.2539 27.3787Z" fill="white" fill-opacity="0.2"/>
<path d="M48.3945 25.5446C48.3945 24.6117 47.6053 23.8555 46.6317 23.8555C45.6581 23.8555 44.8689 24.6117 44.8689 25.5446V26.6993C44.8689 27.6322 45.6581 28.3884 46.6317 28.3884C47.6053 28.3884 48.3945 27.6322 48.3945 26.6993V25.5446Z" fill="black"/>
<path d="M45.8791 25.1151C45.8791 25.2542 45.9919 25.3669 46.131 25.3669C46.2701 25.3669 46.3828 25.2542 46.3828 25.1151C46.3828 24.976 46.2701 24.8633 46.131 24.8633C45.9919 24.8633 45.8791 24.976 45.8791 25.1151Z" fill="white"/>
<path d="M47.8945 27.3787C47.8945 27.1005 47.7619 26.875 47.5983 26.875H46.1761C46.0125 26.875 45.8799 27.1005 45.8799 27.3787C45.8799 27.6568 46.0125 27.8823 46.1761 27.8823H47.5983C47.7619 27.8823 47.8945 27.6568 47.8945 27.3787Z" fill="white" fill-opacity="0.2"/>
<path d="M20.7227 22.3203H57.9938V23.8313H20.7227V22.3203Z" fill="black"/>
<path d="M20.7227 23.8281H57.9938V25.8428H20.7227V23.8281Z" fill="black"/>
<path d="M24.7539 25.8398H39.8638V27.8545H24.7539V25.8398Z" fill="black"/>
<path d="M26.2617 27.8594H37.846V29.874H26.2617V27.8594Z" fill="black"/>
<path d="M28.7812 29.8711H35.8325V31.8858H28.7812V29.8711Z" fill="black"/>
<path d="M41.3711 25.8398H56.481V27.8545H41.3711V25.8398Z" fill="black"/>
<path d="M43.8945 27.8594H54.9751V29.874H43.8945V27.8594Z" fill="black"/>
<path d="M45.4023 29.8711H52.9573V31.8858H45.4023V29.8711Z" fill="black"/>
<path d="M28.7852 27.8516H30.7998V29.8662H28.7852V27.8516Z" fill="white"/>
<path d="M32.8086 27.8516H34.8233V29.8662H32.8086V27.8516Z" fill="white"/>
<path d="M26.7695 25.8398H28.7842V27.8545H26.7695V25.8398Z" fill="white"/>
<path d="M30.7969 25.8398H32.8115V27.8545H30.7969V25.8398Z" fill="white"/>
<path d="M45.9141 27.8516H47.9287V29.8662H45.9141V27.8516Z" fill="white"/>
<path d="M49.9375 27.8516H52.4558V29.8662H49.9375V27.8516Z" fill="white"/>
<path d="M43.8945 25.8398H45.9092V27.8545H43.8945V25.8398Z" fill="white"/>
<path d="M47.9258 25.8398H49.9404V27.8545H47.9258V25.8398Z" fill="white"/>
<path d="M3.98438 48.6328C5.31315 57.4027 13.5515 74.9425 35.0776 65.3753" stroke="black" stroke-width="1.5" stroke-linecap="round"/>
</svg>
